{
	"asset": {
		"generator": "Tilt Brush 18.6.e2ff70c06",
		"version": "1.1",
		"copyright": "Unknown."
	},
	"buffers": {
		"sketch": {
			"byteLength": 359292,
			"type": "arraybuffer",
			"uri": "sketch.bin"
		}
	},
	"accessors": {
		"accessor_position_Dots_6a1cf9f9-032c-45ec-9b1d-a6680bee30f7_0_0": {
			"bufferView": "vec3BufferView",
			"byteOffset": 0,
			"byteStride": 12,
			"componentType": 5126,
			"count": 4548,
			"max": [ 0.7792969, 1.577044, 0.777441 ],
			"min": [ -0.7727833, 0.02544158, -0.7517542 ],
			"type": "VEC3"
		 },
		"accessor_normal_Dots_6a1cf9f9-032c-45ec-9b1d-a6680bee30f7_0_0": {
			"bufferView": "vec3BufferView",
			"byteOffset": 54576,
			"byteStride": 12,
			"componentType": 5126,
			"count": 4548,
			"max": [ 0.6886055, 1.487225, 0.6844399 ],
			"min": [ -0.6694756, 0.1198904, -0.6713468 ],
			"type": "VEC3"
		 },
		"accessor_color_Dots_6a1cf9f9-032c-45ec-9b1d-a6680bee30f7_0_0": {
			"bufferView": "vec4BufferView",
			"byteOffset": 0,
			"byteStride": 16,
			"componentType": 5126,
			"count": 4548,
			"max": [ 0.9764706, 0, 0.8392157, 0.9960784 ],
			"min": [ 0.9764706, 0, 0.8392157, 0 ],
			"type": "VEC4"
		 },
		"accessor_vertexId_Dots_6a1cf9f9-032c-45ec-9b1d-a6680bee30f7_0_0": {
			"bufferView": "floatBufferView",
			"byteOffset": 0,
			"byteStride": 0,
			"componentType": 5126,
			"count": 4548,
			"max": [ 4547 ],
			"min": [ 0 ],
			"type": "SCALAR"
		 },
		"accessor_uv0_Dots_6a1cf9f9-032c-45ec-9b1d-a6680bee30f7_0_0": {
			"bufferView": "vec4BufferView",
			"byteOffset": 72768,
			"byteStride": 16,
			"componentType": 5126,
			"count": 4548,
			"max": [ 1, 1, 0, 594.5056 ],
			"min": [ 0, 0, 0, 557.0072 ],
			"type": "VEC4"
		 },
		"accessor_uv1_Dots_6a1cf9f9-032c-45ec-9b1d-a6680bee30f7_0_0": {
			"bufferView": "vec4BufferView",
			"byteOffset": 145536,
			"byteStride": 16,
			"componentType": 5126,
			"count": 4548,
			"max": [ 0.6886055, 1.487225, 0.6844399, 4547 ],
			"min": [ -0.6694756, 0.1198904, -0.6713468, 0 ],
			"type": "VEC4"
		 },
		"accessor_indices_0_Dots_6a1cf9f9-032c-45ec-9b1d-a6680bee30f7_0_0": {
			"bufferView": "ushortBufferView",
			"byteOffset": 0,
			"byteStride": 0,
			"componentType": 5123,
			"count": 6822,
			"max": [ 4547 ],
			"min": [ 0 ],
			"type": "SCALAR"
		 }
	},
	"bufferViews": {
		"ushortBufferView": {
			"buffer": "sketch",
			"byteLength": 13644,
			"byteOffset": 0,
			"target": 34963
		},
		"floatBufferView": {
			"buffer": "sketch",
			"byteLength": 18192,
			"byteOffset": 13644,
			"target": 34962
		},
		"vec3BufferView": {
			"buffer": "sketch",
			"byteLength": 109152,
			"byteOffset": 31836,
			"target": 34962
		},
		"vec4BufferView": {
			"buffer": "sketch",
			"byteLength": 218304,
			"byteOffset": 140988,
			"target": 34962
		}
	},
	"meshes": {
		"mesh_Dots_6a1cf9f9-032c-45ec-9b1d-a6680bee30f7_0_0": {
			"name": "mesh_Dots_6a1cf9f9-032c-45ec-9b1d-a6680bee30f7_0_0",
			"primitives": [
				{
					"attributes": {
						"POSITION": "accessor_position_Dots_6a1cf9f9-032c-45ec-9b1d-a6680bee30f7_0_0",
						"NORMAL": "accessor_normal_Dots_6a1cf9f9-032c-45ec-9b1d-a6680bee30f7_0_0",
						"COLOR": "accessor_color_Dots_6a1cf9f9-032c-45ec-9b1d-a6680bee30f7_0_0",
						"VERTEXID": "accessor_vertexId_Dots_6a1cf9f9-032c-45ec-9b1d-a6680bee30f7_0_0",
						"TEXCOORD_0": "accessor_uv0_Dots_6a1cf9f9-032c-45ec-9b1d-a6680bee30f7_0_0",
						"TEXCOORD_1": "accessor_uv1_Dots_6a1cf9f9-032c-45ec-9b1d-a6680bee30f7_0_0"
					},
					"indices": "accessor_indices_0_Dots_6a1cf9f9-032c-45ec-9b1d-a6680bee30f7_0_0",
					"material": "material_6a1cf9f9-032c-45ec-9b1d-a6680bee30f7",
					"mode": 4
				}
			]
		}
	},
	"shaders": {
		"vertex_6a1cf9f9-032c-45ec-9b1d-a6680bee30f7": {
			"type": 35633,
			"uri": "https://www.tiltbrush.com/shaders/brushes/Dots-6a1cf9f9-032c-45ec-9b1d-a6680bee30f7/Dots-6a1cf9f9-032c-45ec-9b1d-a6680bee30f7-v10.0-vertex.glsl"
		},
		"fragment_6a1cf9f9-032c-45ec-9b1d-a6680bee30f7": {
			"type": 35632,
			"uri": "https://www.tiltbrush.com/shaders/brushes/Dots-6a1cf9f9-032c-45ec-9b1d-a6680bee30f7/Dots-6a1cf9f9-032c-45ec-9b1d-a6680bee30f7-v10.0-fragment.glsl"
		}
	},
	"programs": {
		"program_6a1cf9f9-032c-45ec-9b1d-a6680bee30f7": {
			"attributes": [
				"a_position",
				"a_normal",
				"a_color",
				"a_vertexId",
				"a_texcoord0",
				"a_texcoord1"				
			],
			"vertexShader": "vertex_6a1cf9f9-032c-45ec-9b1d-a6680bee30f7",
			"fragmentShader": "fragment_6a1cf9f9-032c-45ec-9b1d-a6680bee30f7"
		}
	},
	"techniques": {
		"technique_6a1cf9f9-032c-45ec-9b1d-a6680bee30f7": {
			"program": "program_6a1cf9f9-032c-45ec-9b1d-a6680bee30f7",
			"parameters": {
				"position": {
					"type": 35665,
					"semantic": "POSITION"
				},
				"normal": {
					"type": 35665,
					"semantic": "NORMAL"
				},
				"color": {
					"type": 35666,
					"semantic": "COLOR"
				},
				"vertexId": {
					"type": 5126
				},
				"texcoord0": {
					"type": 35666,
					"semantic": "TEXCOORD_0"
				},
				"texcoord1": {
					"type": 35666,
					"semantic": "TEXCOORD_1"
				},
				"modelViewMatrix": {
					"type": 35676,
					"semantic": "MODELVIEW"
				},
				"projectionMatrix": {
					"type": 35676,
					"semantic": "PROJECTION"
				},
				"normalMatrix": {
					"type": 35675,
					"semantic": "MODELVIEWINVERSETRANSPOSE"
				},
				"SceneLight_0_matrix": {
					"type": 35676,
					"semantic": "MODELVIEW",
					"node": "node_SceneLight_0_-1110"
				},
				"SceneLight_0_color": {
					"type": 35666,
					"node": "node_SceneLight_0_-1110"
				},
				"SceneLight_1_matrix": {
					"type": 35676,
					"semantic": "MODELVIEW",
					"node": "node_SceneLight_1_-1116"
				},
				"SceneLight_1_color": {
					"type": 35666,
					"node": "node_SceneLight_1_-1116"
				},
				"ambient_light_color": {
					"type": 35666
				},
				"WaveformFreq": {
					"type": 5126
				},
				"BaseGain": {
					"type": 5126
				},
				"EmissionGain": {
					"type": 5126
				},
				"TintColor": {
					"type": 35666
				},
				"WaveformIntensity": {
					"type": 35666
				},
				"MainTex_TexelSize": {
					"type": 35666
				},
				"MainTex": {
					"type": 35678
				}				
			},
			"attributes": {
				"a_position": "position",
				"a_normal": "normal",
				"a_color": "color",
				"a_vertexId": "vertexId",
				"a_texcoord0": "texcoord0",
				"a_texcoord1": "texcoord1"				
			},
			"uniforms": {
				"u_modelViewMatrix": "modelViewMatrix",
				"u_projectionMatrix": "projectionMatrix",
				"u_normalMatrix": "normalMatrix",
				"u_SceneLight_0_matrix": "SceneLight_0_matrix",
				"u_SceneLight_0_color": "SceneLight_0_color",
				"u_SceneLight_1_matrix": "SceneLight_1_matrix",
				"u_SceneLight_1_color": "SceneLight_1_color",
				"u_ambient_light_color": "ambient_light_color",
				"u_WaveformFreq": "WaveformFreq",
				"u_BaseGain": "BaseGain",
				"u_EmissionGain": "EmissionGain",
				"u_TintColor": "TintColor",
				"u_WaveformIntensity": "WaveformIntensity",
				"u_MainTex_TexelSize": "MainTex_TexelSize",
				"u_MainTex": "MainTex"				
			},
			"states": {
				"enable": [
					2929,
					3042
				],
				"functions": {
					"blendFuncSeparate": [1, 1, 1, 1],
					"depthMask": [false]
				}
			}
		}
	},
	"samplers": {
		"sampler_LINEAR_LINEAR_REPEAT": {
			"magFilter": 9729,
			"minFilter": 9987,
			"wrapS": 10497,
			"wrapT": 10497
		}
	},
	"textures": {
		"texture_6a1cf9f9-032c-45ec-9b1d-a6680bee30f7_MainTex": {
			"format": 6408,
			"internalFormat": 6408,
			"sampler": "sampler_LINEAR_LINEAR_REPEAT",
			"source": "image_6a1cf9f9-032c-45ec-9b1d-a6680bee30f7_MainTex",
			"target": 3553,
			"type": 5121
		}
	},
	"images": {
		"image_6a1cf9f9-032c-45ec-9b1d-a6680bee30f7_MainTex": {
			"uri": "https://www.tiltbrush.com/shaders/brushes/Dots-6a1cf9f9-032c-45ec-9b1d-a6680bee30f7/Dots-6a1cf9f9-032c-45ec-9b1d-a6680bee30f7-v10.0-MainTex.png"
		}
	},
	"materials": {
		"material_6a1cf9f9-032c-45ec-9b1d-a6680bee30f7": {
			"technique": "technique_6a1cf9f9-032c-45ec-9b1d-a6680bee30f7",
			"values": {
				"SceneLight_0_color": [0.7780392, 0.8156863, 0.9913726, 1],
				"SceneLight_1_color": [0.4282353, 0.4211765, 0.3458824, 1],
				"ambient_light_color": [0.3921569, 0.3921569, 0.3921569, 1],
				"WaveformFreq": 0.1,
				"BaseGain": 0.4,
				"EmissionGain": 300,
				"TintColor": [1, 1, 1, 1],
				"WaveformIntensity": [0, 15, 0, 0],
				"MainTex_TexelSize": [0.001953125, 0.001953125, 512, 512],
				"MainTex": "texture_6a1cf9f9-032c-45ec-9b1d-a6680bee30f7_MainTex"				
			},
			"name": "material_6a1cf9f9-032c-45ec-9b1d-a6680bee30f7"
		}
	},
	"nodes": {
		"node_Dots_6a1cf9f9-032c-45ec-9b1d-a6680bee30f7_0_0": {
			"name": "node_Dots_6a1cf9f9-032c-45ec-9b1d-a6680bee30f7_0_0",
			"meshes": [
				"mesh_Dots_6a1cf9f9-032c-45ec-9b1d-a6680bee30f7_0_0"
			],
			"matrix": [1, 0, 0, 0, 0, 1, 0, 0, 0, 0, 1, 0, 0, 0, 0, 1]
		},
		"node_SceneLight_0_-1110": {
			"name": "node_SceneLight_0_-1110",
			"light": "SceneLight_0",
			"matrix": [0.898794, 0.2191856, -0.3796406, 0, -0.4383712, 0.449397, -0.7783785, 0, -1.490116E-08, 0.8660254, 0.4999999, 0, 0, 0.021875, 0.05458749, 1]
		},
		"node_SceneLight_1_-1116": {
			"name": "node_SceneLight_1_-1116",
			"light": "SceneLight_1",
			"matrix": [0.7660444, -0.4924039, -0.4131759, 0, -0.6427876, -0.5868242, -0.4924039, 0, 8.940697E-08, 0.6427876, -0.7660446, 0, 0, 0.021875, 0.05458749, 1]
		}
	},
	"scene": "defaultScene",
	"scenes": {
		"defaultScene": {
			"nodes": [
				"node_Dots_6a1cf9f9-032c-45ec-9b1d-a6680bee30f7_0_0",
				"node_SceneLight_0_-1110",
				"node_SceneLight_1_-1116"
			],
			"extras": {
				"TB_EnvironmentGuid": "ab080599-e465-4a6d-8587-43bf495af68b",
				"TB_Environment": "Standard",
				"TB_UseGradient": "true",
				"TB_SkyColorA": "0.2745098, 0.2745098, 0.3176471",
				"TB_SkyColorB": "0.03529412, 0.03529412, 0.08627451",
				"TB_SkyGradientDirection": "0, 1, 0",
				"TB_FogColor": "0.1647059, 0.1647059, 0.2078431",
				"TB_FogDensity": "0.0025",
				"TB_SkyColorHorizon": "0.2745098, 0.2745098, 0.3176471",
				"TB_SkyColorZenith": "0.03529412, 0.03529412, 0.08627451"
			}
		}
	}
}